<svg xmlns="http://www.w3.org/2000/svg" viewBox="12 12 40 40">
    <g id="Group">
        <path fill="#fff" d="M32,18 C24.2680135,18 18,24.2680135 18,32 C18,39.7319865 24.2680135,46 32,46 L45.6,46 C45.8209139,46 46,45.8209139 46,45.6 L46,32 C46,24.2680135 39.7319865,18 32,18 Z M32,14 C41.9411255,14 50,22.0588745 50,32 L50,45.6 C50,48.0300529 48.0300529,50 45.6,50 L32,50 C22.0588745,50 14,41.9411255 14,32 C14,22.0588745 22.0588745,14 32,14 Z M25.9634146,31.5853659 L37.9634146,31.5853659 C39.0679841,31.5853659 39.9634146,30.6899354 39.9634146,29.5853659 C39.9634146,28.4807964 39.0679841,27.5853659 37.9634146,27.5853659 L25.9634146,27.5853659 C24.8588451,27.5853659 23.9634146,28.4807964 23.9634146,29.5853659 C23.9634146,30.6899354 24.8588451,31.5853659 25.9634146,31.5853659 Z M31.195122,38.8292683 L37.195122,38.8292683 C38.2996915,38.8292683 39.195122,37.9338378 39.195122,36.8292683 C39.195122,35.7246988 38.2996915,34.8292683 37.195122,34.8292683 L31.195122,34.8292683 C30.0905525,34.8292683 29.195122,35.7246988 29.195122,36.8292683 C29.195122,37.9338378 30.0905525,38.8292683 31.195122,38.8292683 Z"></path>
    </g>
</svg>