<svg xmlns="http://www.w3.org/2000/svg" viewBox="0 0 90.73 130.02"><defs><style>.cls-1{fill:none;stroke:#1665a1;stroke-linecap:round;stroke-linejoin:round;stroke-width:2px;}</style></defs><g id="Layer_2" data-name="Layer 2"><g id="Layer_1-2" data-name="Layer 1"><path class="cls-1" d="M9.52,112.05C4.16,99.13,1,83.2,1,66,1,22.8,20.86,1,45.36,1S89.73,22.8,89.73,66c0,16.41-2.87,31.65-7.78,44.22"/><path class="cls-1" d="M56.93,20.07C52.79,31,38.14,39.33,20.1,40.58a38.51,38.51,0,0,0-.85,8.06c0,17.6,11.69,31.86,26.11,31.86S71.48,66.24,71.48,48.64C71.48,36.11,65.55,25.28,56.93,20.07Z"/><path class="cls-1" d="M34.35,77.58S34.56,90.15,20,97.45C6.88,104.18,6.88,129,6.88,129"/><path class="cls-1" d="M57.74,77.58s-.21,12.57,14.4,19.87C85.22,104.18,85.22,129,85.22,129"/><path class="cls-1" d="M65.74,93.21c-5,2.62-12,4.24-19.69,4.24s-14.72-1.62-19.7-4.24"/></g></g></svg>