<svg xmlns="http://www.w3.org/2000/svg" viewBox="0 0 139.75 123.18"><defs><style>.cls-1{fill:none;stroke:#1665a1;stroke-linecap:round;stroke-linejoin:round;stroke-width:2px;}</style></defs><g id="Layer_2" data-name="Layer 2"><g id="Layer_1-2" data-name="Layer 1"><rect class="cls-1" x="1" y="15.86" width="137.75" height="106.32" rx="9.81"/><circle class="cls-1" cx="123.4" cy="29.02" r="3.57"/><circle class="cls-1" cx="16.35" cy="29.02" r="3.57"/><line class="cls-1" x1="12.78" y1="43.37" x2="126.97" y2="43.37"/><rect class="cls-1" x="12.89" y="56.22" width="13.7" height="13.7" rx="3.37"/><rect class="cls-1" x="46.31" y="56.22" width="13.7" height="13.7" rx="3.37"/><rect class="cls-1" x="79.74" y="88.61" width="13.7" height="13.7" rx="3.37"/><rect class="cls-1" x="113.16" y="88.61" width="13.7" height="13.7" rx="3.37"/><polyline class="cls-1" points="84.4 61.31 88.87 66.98 100.34 56.22"/><polyline class="cls-1" points="115.43 61.31 119.9 66.98 131.37 56.22"/><polyline class="cls-1" points="15.16 93.7 19.64 99.37 31.11 88.61"/><polyline class="cls-1" points="48.52 93.7 52.99 99.37 64.46 88.61"/><line class="cls-1" x1="123.4" y1="1" x2="123.4" y2="29.02"/><line class="cls-1" x1="16.35" y1="1" x2="16.35" y2="29.02"/></g></g></svg>