<svg xmlns="http://www.w3.org/2000/svg" viewBox="0 0 134.88 127.42"><defs><style>.cls-1{fill:none;stroke:#1665a1;stroke-linecap:round;stroke-linejoin:round;stroke-width:2px;}.cls-2{fill:#00609C;}</style></defs><g id="Layer_2" data-name="Layer 2"><g id="Layer_1-2" data-name="Layer 1"><line class="cls-1" x1="89.89" y1="9.09" x2="89.89" y2="52.62"/><line class="cls-1" x1="44.98" y1="9.09" x2="44.98" y2="52.62"/><line class="cls-1" x1="67.44" y1="1" x2="67.44" y2="25.98"/><path class="cls-1" d="M115.84,126.42l-23.2-16.3L47.7,115.55,2.38,76.24a4,4,0,0,1,.09-6.13h0a12.6,12.6,0,0,1,15.47-.34l25.78,18"/><path class="cls-1" d="M133.88,102.14,101.59,78A30,30,0,0,0,78.1,72.49L43.48,78.88a2.32,2.32,0,0,0-1.86,2.66l.22,1.32a13.19,13.19,0,0,0,13.44,11l26.25-.88"/><circle class="cls-1" cx="67.44" cy="48.7" r="14.67"/><path class="cls-2" d="M68.34,39.16V41A5.71,5.71,0,0,1,71,42a3.26,3.26,0,0,1,1.32,2.16h-1.4a2.35,2.35,0,0,0-.83-1.56,3.55,3.55,0,0,0-1.7-.72v5.44c.55.21,1.1.43,1.64.67a6,6,0,0,1,1.45.87,3.91,3.91,0,0,1,1,1.21,3.37,3.37,0,0,1,.39,1.68,3.63,3.63,0,0,1-1.21,2.83,5.41,5.41,0,0,1-3.28,1.25v2.38H66.83V55.86a7.71,7.71,0,0,1-1.89-.39,5.3,5.3,0,0,1-1.49-.81,3.92,3.92,0,0,1-1-1.18A3.18,3.18,0,0,1,62.05,52h1.41a4.3,4.3,0,0,0,.14.81,2.59,2.59,0,0,0,.48.93,3.06,3.06,0,0,0,1,.8,4.44,4.44,0,0,0,1.76.44V48.8c-.53-.19-1-.39-1.54-.61a5.75,5.75,0,0,1-1.35-.78A3.74,3.74,0,0,1,63,46.3a3.14,3.14,0,0,1-.36-1.55A3.42,3.42,0,0,1,63,43.21a3.52,3.52,0,0,1,.9-1.16,4.26,4.26,0,0,1,1.33-.77,6.21,6.21,0,0,1,1.64-.34V39.16Zm-4,5.94a2.39,2.39,0,0,0,.57.67,4.71,4.71,0,0,0,.86.55c.33.17.68.32,1.06.48V41.87a3.32,3.32,0,0,0-2,.82,2.12,2.12,0,0,0-.68,1.54A1.75,1.75,0,0,0,64.35,45.1Zm6.5,6.22a2.65,2.65,0,0,0-.58-.82,4.41,4.41,0,0,0-.87-.63,8.51,8.51,0,0,0-1.05-.51V55a3.67,3.67,0,0,0,2-.77,2.18,2.18,0,0,0,.73-1.78A2.45,2.45,0,0,0,70.85,51.32Z"/></g></g></svg>